<?xml version="1.0" encoding="UTF-8"?><svg id="Capa_1" xmlns="http://www.w3.org/2000/svg" viewBox="0 0 574 575"><defs><style>.cls-1{fill:#fff;}.cls-2{fill:#c2b280;}.cls-3{fill:#141414;}</style></defs><rect class="cls-3" width="574" height="575"/><circle class="cls-1" cx="287" cy="243" r="125"/><rect class="cls-3" x="195" y="152" width="184" height="184" rx="72" ry="72"/><path class="cls-2" d="m285.12,304.54c3.92,15.45,7.37-8.75,7.22-12.38,0-7.62,0-16.28,0-23.96,0-.5-.57-.9-1.28-.9h-6.4c-.71,0-1.28.4-1.28.9.35,10.13-1.18,26.51,1.75,36.34h0Z"/><path class="cls-2" d="m278.73,299.53c-.26-10.71-.16-21.44-.34-32.15-16.73,9.5-12.69,29.36-3.13,41.09,4.67,4.96,3.36-7.49,3.46-8.93h0Z"/><path class="cls-2" d="m297.43,299.53c.26-10.71.16-21.44.34-32.15,16.73,9.5,12.69,29.36,3.13,41.09-4.67,4.96-3.36-7.49-3.46-8.93h0Z"/><path class="cls-2" d="m289.7,262.5l.95-.04h3.33c4.07-10.89,13.68-20.46,22.97-29.71,2.89-2.88,5.87-5.85,8.58-8.77,1.99-2.14,3.7-4.7,5.1-7.62,1.39-2.9,2.09-6.21,2.09-9.84v-.08c0-6.03-1.69-11.24-5.03-15.5-3.32-4.23-8.22-7.5-14.55-9.73-6.38-2.24-14.16-3.38-23.13-3.38-26,0-40.18,15.86-45.07,22.68-2.33,3.25-4.76,8.2-3.13,13.32,1.49,4.67,6.53,8.5,12.54,9.52,3.78.64,7.86.23,11.2-1.14,6.5-2.67,8.68-8.24,9.4-11.31.39-1.66.35-3.64.3-5.73-.1-4.74-.21-10.11,4.95-13.25,3.58-2.18,8.99-3,14.85-2.26,6.89.87,13.01,3.67,15.6,7.13,7.95,10.61-6.02,23.65-13.53,30.66-4.21,3.84-7.65,7.28-10.23,10.22-2.56,2.92-4.79,6.56-6.6,10.83-1.65,4.5-1.14,8.84,1.69,14h7.71Z"/><path class="cls-1" d="m169.58,403.41h-14.76v-5.33h35.92v5.33h-14.83v43.19h-6.34v-43.19Z"/><path class="cls-1" d="m222.35,428.89c0,12.89-8.93,18.5-17.35,18.5-9.43,0-16.7-6.91-16.7-17.93,0-11.66,7.63-18.5,17.28-18.5s16.77,7.27,16.77,17.93Zm-27.64.36c0,7.63,4.39,13.39,10.58,13.39s10.58-5.69,10.58-13.53c0-5.9-2.95-13.39-10.44-13.39s-10.73,6.91-10.73,13.53Z"/><path class="cls-1" d="m261.87,428.89c0,12.89-8.93,18.5-17.35,18.5-9.43,0-16.7-6.91-16.7-17.93,0-11.66,7.63-18.5,17.28-18.5s16.77,7.27,16.77,17.93Zm-27.64.36c0,7.63,4.39,13.39,10.58,13.39s10.58-5.69,10.58-13.53c0-5.9-2.95-13.39-10.44-13.39s-10.73,6.91-10.73,13.53Z"/><path class="cls-1" d="m326.24,425.29c-.36-6.77-.79-14.9-.72-20.95h-.22c-1.66,5.69-3.67,11.73-6.12,18.43l-8.57,23.54h-4.75l-7.85-23.11c-2.3-6.84-4.25-13.1-5.62-18.86h-.14c-.14,6.05-.5,14.18-.94,21.45l-1.3,20.81h-5.98l3.38-48.52h7.99l8.28,23.47c2.02,5.98,3.67,11.3,4.9,16.34h.22c1.22-4.9,2.95-10.22,5.11-16.34l8.64-23.47h7.99l3.02,48.52h-6.12l-1.22-21.31Z"/><path class="cls-1" d="m372.38,437.1c0,3.6.07,6.77.29,9.5h-5.62l-.36-5.69h-.14c-1.66,2.81-5.33,6.48-11.52,6.48-5.47,0-12.02-3.02-12.02-15.26v-20.37h6.34v19.29c0,6.62,2.02,11.09,7.77,11.09,4.25,0,7.2-2.95,8.35-5.76.36-.94.58-2.09.58-3.24v-21.38h6.34v25.34Z"/><path class="cls-1" d="m380.81,442.86c0-2.66,1.8-4.54,4.32-4.54s4.25,1.87,4.25,4.54-1.66,4.54-4.32,4.54c-2.52,0-4.25-1.94-4.25-4.54Z"/><path class="cls-1" d="m395.71,442.86c0-2.66,1.8-4.54,4.32-4.54s4.25,1.87,4.25,4.54-1.66,4.54-4.32,4.54c-2.52,0-4.25-1.94-4.25-4.54Z"/><path class="cls-1" d="m410.61,442.86c0-2.66,1.8-4.54,4.32-4.54s4.25,1.87,4.25,4.54-1.66,4.54-4.32,4.54c-2.52,0-4.25-1.94-4.25-4.54Z"/></svg>